<?xml version="1.0" encoding="UTF-8" standalone="no"?>
<!DOCTYPE svg PUBLIC "-//W3C//DTD SVG 1.1//EN" "http://www.w3.org/Graphics/SVG/1.1/DTD/svg11.dtd">
<svg xmlns="http://www.w3.org/2000/svg" version="1.1" viewBox="0.00 0.00 868.00 210.00">
<path fill="#000000" d="
  M 113.11 80.77
  C 112.80 73.63 112.57 66.73 113.95 59.56
  Q 116.59 45.76 124.98 34.04
  C 138.02 15.81 158.18 3.56 180.76 3.46
  C 186.11 3.44 192.88 5.73 196.75 9.66
  Q 203.68 16.70 203.75 26.27
  Q 203.87 42.58 203.84 185.49
  Q 203.83 189.25 201.28 194.37
  C 196.79 203.35 186.50 207.31 176.88 205.61
  C 170.42 204.47 166.23 200.70 160.80 195.28
  Q 115.18 149.80 96.29 130.85
  A 0.29 0.29 0.0 0 0 95.80 131.08
  Q 97.28 147.69 91.09 162.64
  C 84.90 177.55 72.41 190.40 58.23 198.44
  Q 42.78 207.19 25.72 205.90
  C 13.92 205.00 5.46 196.55 4.08 184.88
  Q 3.94 183.66 3.94 174.61
  Q 3.96 70.60 3.90 27.24
  Q 3.89 17.93 7.32 12.86
  Q 13.64 3.52 24.77 3.20
  Q 34.22 2.93 40.94 9.59
  Q 68.72 37.08 112.50 81.03
  A 0.36 0.36 0.0 0 0 113.11 80.77
  Z
  M 122.06 109.85
  A 5.46 5.40 -20.1 0 1 118.96 108.43
  Q 116.18 105.85 108.42 98.08
  Q 84.64 74.24 32.40 22.72
  Q 29.15 19.52 28.21 19.16
  C 24.35 17.72 19.97 20.52 19.97 24.53
  Q 19.98 157.38 19.99 182.26
  C 20.00 190.03 27.31 191.65 33.50 190.81
  C 43.39 189.46 50.83 185.97 58.51 180.56
  Q 60.04 179.49 64.41 175.42
  C 80.19 160.76 84.99 139.64 78.51 119.02
  Q 76.67 113.18 76.06 110.47
  A 4.39 4.36 39.1 0 1 75.96 109.54
  Q 75.90 100.36 85.33 101.02
  Q 87.42 101.16 89.26 102.99
  C 116.94 130.50 143.60 156.24 170.56 183.20
  Q 174.09 186.74 176.75 188.98
  Q 180.98 192.54 185.45 189.16
  Q 188.00 187.23 188.00 182.54
  Q 188.01 158.39 187.99 28.50
  C 187.99 20.34 181.77 17.72 174.50 18.97
  Q 156.30 22.08 143.24 35.73
  Q 131.08 48.45 127.91 65.49
  Q 125.11 80.50 129.61 94.71
  Q 131.35 100.20 131.63 101.94
  A 2.97 2.91 49.0 0 1 131.56 103.14
  Q 129.51 110.65 122.06 109.85
  Z"
/>
<path fill="#000000" d="
  M 751.77 103.39
  C 752.12 120.65 744.85 136.29 732.00 147.12
  C 721.63 155.85 708.81 159.86 695.51 160.13
  C 682.21 160.40 669.24 156.92 658.53 148.61
  C 645.24 138.31 637.35 122.98 637.00 105.72
  C 636.65 88.46 643.91 72.82 656.77 61.99
  C 667.14 53.26 679.95 49.25 693.25 48.98
  C 706.56 48.71 719.52 52.19 730.24 60.50
  C 743.52 70.80 751.42 86.13 751.77 103.39
  Z
  M 660.22 83.44
  Q 655.45 91.67 654.99 100.50
  Q 654.47 110.27 656.39 116.64
  Q 662.36 136.47 682.49 142.59
  Q 698.08 147.33 712.79 140.42
  Q 729.01 132.80 732.92 114.79
  Q 736.19 99.74 729.40 85.94
  C 722.60 72.13 709.42 64.44 694.03 64.60
  Q 670.99 64.83 660.22 83.44
  Z"
/>
<path fill="#000000" d="
  M 338.76 128.32
  A 0.04 0.04 0.0 0 0 338.83 128.30
  L 338.63 52.25
  A 0.63 0.63 0.0 0 1 339.26 51.62
  L 355.57 51.62
  A 0.43 0.43 0.0 0 1 356.00 52.05
  L 356.00 157.74
  A 0.56 0.55 -0.0 0 1 355.44 158.29
  L 338.35 158.29
  A 0.75 0.74 -16.7 0 1 337.73 157.96
  Q 318.10 127.32 294.46 91.07
  C 291.59 86.67 288.68 82.63 286.36 78.02
  A 0.22 0.22 0.0 0 0 285.95 78.12
  L 285.95 157.93
  A 0.37 0.37 0.0 0 1 285.58 158.30
  L 269.52 158.30
  A 0.57 0.57 0.0 0 1 268.95 157.73
  L 268.95 52.11
  A 0.50 0.50 0.0 0 1 269.45 51.61
  L 287.85 51.61
  A 1.82 1.79 -16.2 0 1 289.37 52.43
  L 338.76 128.32
  Z"
/>
<path fill="#000000" d="
  M 390.50 51.58
  L 454.50 51.58
  A 0.54 0.54 0.0 0 1 455.04 52.12
  L 455.04 65.81
  A 0.54 0.54 0.0 0 1 454.50 66.35
  L 407.50 66.35
  A 0.54 0.54 0.0 0 0 406.96 66.89
  L 406.96 95.45
  A 0.54 0.54 0.0 0 0 407.50 95.99
  L 447.52 95.99
  A 0.54 0.54 0.0 0 1 448.06 96.53
  L 448.06 111.06
  A 0.54 0.54 0.0 0 1 447.52 111.60
  L 407.52 111.60
  A 0.54 0.54 0.0 0 0 406.98 112.14
  L 406.98 142.15
  A 0.54 0.54 0.0 0 0 407.52 142.69
  L 454.88 142.69
  A 0.54 0.54 0.0 0 1 455.42 143.23
  L 455.42 157.78
  A 0.54 0.54 0.0 0 1 454.88 158.32
  L 390.50 158.32
  A 0.54 0.54 0.0 0 1 389.96 157.78
  L 389.96 52.12
  A 0.54 0.54 0.0 0 1 390.50 51.58
  Z"
/>
<path fill="#000000" d="
  M 569.34 157.61
  A 0.43 0.43 0.0 0 1 568.98 158.27
  L 550.72 158.27
  A 1.02 1.02 0.0 0 1 549.86 157.80
  L 526.24 120.27
  A 0.78 0.77 73.4 0 0 525.59 119.91
  L 504.24 119.91
  A 0.66 0.66 0.0 0 0 503.58 120.57
  L 503.58 157.57
  A 0.75 0.75 0.0 0 1 502.83 158.32
  L 487.02 158.32
  A 0.48 0.48 0.0 0 1 486.54 157.84
  L 486.54 52.23
  A 0.60 0.60 0.0 0 1 487.14 51.63
  Q 505.56 51.57 530.75 51.63
  Q 534.59 51.64 537.86 51.88
  C 551.46 52.90 563.17 60.93 567.00 74.53
  C 572.40 93.69 563.07 111.53 543.96 117.26
  A 0.58 0.58 0.0 0 0 543.64 118.13
  L 569.34 157.61
  Z
  M 503.48 66.39
  L 503.62 104.39
  A 0.37 0.37 0.0 0 0 503.99 104.76
  L 529.42 104.67
  A 21.20 17.86 -0.2 0 0 550.56 86.74
  L 550.54 83.72
  A 21.20 17.86 -0.2 0 0 529.28 65.93
  L 503.85 66.02
  A 0.37 0.37 0.0 0 0 503.48 66.39
  Z"
/>
<path fill="#000000" d="
  M 612.46 157.86
  A 0.43 0.43 0.0 0 1 612.03 158.29
  L 594.83 158.29
  A 0.43 0.43 0.0 0 1 594.40 157.86
  L 594.40 52.10
  A 0.43 0.43 0.0 0 1 594.83 51.67
  L 612.03 51.67
  A 0.43 0.43 0.0 0 1 612.46 52.10
  L 612.46 157.86
  Z"
/>
<path fill="#000000" d="
  M 793.97 78.60
  A 0.03 0.03 0.0 0 0 793.91 78.62
  L 793.91 158.00
  A 0.33 0.33 0.0 0 1 793.58 158.33
  L 777.52 158.33
  A 0.52 0.52 0.0 0 1 777.00 157.81
  L 777.00 52.14
  A 0.53 0.52 -90.0 0 1 777.52 51.61
  L 795.17 51.61
  A 2.03 2.01 73.3 0 1 796.86 52.53
  L 846.85 129.35
  A 0.10 0.10 0.0 0 0 847.04 129.29
  L 847.04 52.26
  A 0.58 0.58 0.0 0 1 847.62 51.68
  L 863.31 51.68
  A 0.64 0.64 0.0 0 1 863.95 52.32
  L 863.95 157.88
  A 0.39 0.39 0.0 0 1 863.56 158.27
  L 846.57 158.27
  A 1.40 1.38 -16.6 0 1 845.41 157.65
  L 793.97 78.60
  Z"
/>
</svg>
